<svg xmlns="http://www.w3.org/2000/svg" width="1024" height="1024" viewBox="0 0 1024 1024">
  <defs>
    <linearGradient id="bg" x1="160" y1="96" x2="864" y2="928" gradientUnits="userSpaceOnUse">
      <stop offset="0" stop-color="#0e3338"/>
      <stop offset="0.52" stop-color="#08282c"/>
      <stop offset="1" stop-color="#05181c"/>
    </linearGradient>
    <linearGradient id="bolt" x1="430" y1="176" x2="618" y2="844" gradientUnits="userSpaceOnUse">
      <stop offset="0" stop-color="#e8ff72"/>
      <stop offset="0.48" stop-color="#58e9b0"/>
      <stop offset="1" stop-color="#27ddc8"/>
    </linearGradient>
    <linearGradient id="bars" x1="768" y1="520" x2="768" y2="818" gradientUnits="userSpaceOnUse">
      <stop offset="0" stop-color="#e6ff6a"/>
      <stop offset="0.42" stop-color="#75eb94"/>
      <stop offset="1" stop-color="#28ddcb"/>
    </linearGradient>
    <filter id="shadow" x="-20%" y="-20%" width="140%" height="140%" color-interpolation-filters="sRGB">
      <feDropShadow dx="0" dy="24" stdDeviation="34" flood-color="#000000" flood-opacity="0.28"/>
    </filter>
    <filter id="glow" x="-35%" y="-35%" width="170%" height="170%" color-interpolation-filters="sRGB">
      <feGaussianBlur stdDeviation="12" result="blur"/>
      <feColorMatrix in="blur" type="matrix" values="0 0 0 0 0.14 0 0 0 0 0.94 0 0 0 0 0.82 0 0 0 0.58 0"/>
      <feBlend in="SourceGraphic"/>
    </filter>
  </defs>

  <rect x="64" y="64" width="896" height="896" rx="214" fill="url(#bg)"/>
  <rect x="64" y="64" width="896" height="896" rx="214" fill="none" stroke="#2b4b50" stroke-width="18"/>
  <path d="M204 512h616" stroke="#3ca296" stroke-width="14" stroke-linecap="round" opacity=".34"/>
  <circle cx="512" cy="512" r="268" fill="none" stroke="#31a89b" stroke-width="22" opacity=".42"/>
  <circle cx="512" cy="512" r="178" fill="none" stroke="#4cc7ad" stroke-width="20" opacity=".38"/>
  <path d="M214 706h82l35-63 58 126 66-257 50 194h96" fill="none" stroke="#dfff67" stroke-width="30" stroke-linecap="round" stroke-linejoin="round"/>
  <path d="M214 706h82l35-63 58 126 66-257 50 194h96" fill="none" stroke="#30e5cf" stroke-width="17" stroke-linecap="round" stroke-linejoin="round"/>

  <g filter="url(#shadow)">
    <path d="M520 180 402 538c-9 27 11 55 40 55h88L471 842c-9 39 43 60 64 26l196-357c16-29-5-65-39-65h-91l26-248c4-39-94-54-107-18Z" fill="#eafff6"/>
    <path d="M540 244 440 554h126l-54 215 160-286H555l20-239Z" fill="url(#bolt)" filter="url(#glow)"/>
    <circle cx="512" cy="512" r="92" fill="#08252a"/>
    <circle cx="512" cy="512" r="46" fill="#33e4cc"/>
  </g>

  <g fill="url(#bars)">
    <rect x="678" y="724" width="54" height="88" rx="18"/>
    <rect x="752" y="672" width="54" height="140" rx="18"/>
    <rect x="826" y="610" width="54" height="202" rx="18"/>
  </g>
  <g fill="#e6ff6a" opacity=".95">
    <path d="M678 742c0-10 8-18 18-18h18c10 0 18 8 18 18v18h-54z"/>
    <path d="M752 690c0-10 8-18 18-18h18c10 0 18 8 18 18v24h-54z"/>
    <path d="M826 628c0-10 8-18 18-18h18c10 0 18 8 18 18v31h-54z"/>
  </g>
</svg>
